<?xml version="1.0" encoding="UTF-8"?>
<svg width="11px" height="11px" viewBox="0 0 11 11" version="1.1" xmlns="http://www.w3.org/2000/svg" xmlns:xlink="http://www.w3.org/1999/xlink">
    <!-- Generator: Sketch 55.2 (78181) - https://sketchapp.com -->
    <title>flaticon1564729908-svg</title>
    <desc>Created with Sketch.</desc>
    <g id="Event" stroke="none" stroke-width="1" fill="none" fill-rule="evenodd">
        <g id="Desktop-Copy-2" transform="translate(-139.000000, -184.000000)" fill="#4A4A4A" fill-rule="nonzero">
            <g id="Group-Copy" transform="translate(33.000000, 156.000000)">
                <g id="Group-6" transform="translate(102.000000, 23.000000)">
                    <g id="flaticon1564729908-svg" transform="translate(9.451287, 10.727284) rotate(135.000000) translate(-9.451287, -10.727284) translate(2.451287, 5.227284)">
                        <path d="M12.6063196,4.46145865 L12.6271697,4.46598083 L3.68917981,4.46598083 L6.49895736,1.6739622 C6.63654676,1.53765062 6.71202003,1.35299472 6.71202003,1.15918679 C6.71202003,0.965378855 6.63654676,0.782015015 6.49895736,0.645380421 L6.06175536,0.211681333 C5.92427456,0.0753697523 5.74107541,-7.95807864e-13 5.54571366,-7.95807864e-13 C5.35024332,-7.95807864e-13 5.16693558,0.0748313969 5.02945478,0.211142977 L0.212956986,4.98624747 C0.0749332067,5.1230974 -0.000540063771,5.30538453 -6.82121026e-13,5.49930014 C-0.000540063771,5.69429245 0.0749332067,5.87668725 0.212956986,6.01332185 L5.02945478,10.788857 C5.16693558,10.9250609 5.35013473,11 5.54571366,11 C5.74107541,11 5.92427456,10.9249533 6.06175536,10.788857 L6.49895736,10.3551579 C6.63654676,10.2190617 6.71202003,10.0373129 6.71202003,9.84350499 C6.71202003,9.64980472 6.63654676,9.47763868 6.49895736,9.34143477 L3.65747017,6.53380382 L12.6163103,6.53380382 C13.0188706,6.53380382 13.3571429,6.18979474 13.3571429,5.79087341 L13.3571429,5.1774713 C13.3571429,4.77854996 13.0088799,4.46145865 12.6063196,4.46145865 Z" id="Path"></path>
                    </g>
                </g>
            </g>
        </g>
    </g>
</svg>