<?xml version="1.0" encoding="UTF-8"?>
<svg width="12px" height="12px" viewBox="0 0 12 12" version="1.1" xmlns="http://www.w3.org/2000/svg" xmlns:xlink="http://www.w3.org/1999/xlink">
    <!-- Generator: Sketch 55.2 (78181) - https://sketchapp.com -->
    <title>flaticon1565873252-svg</title>
    <desc>Created with Sketch.</desc>
    <g id="Page-1" stroke="none" stroke-width="1" fill="none" fill-rule="evenodd">
        <g id="Mobile-Copy-2" transform="translate(-16.000000, -1048.000000)" fill="#B7B7B7" fill-rule="nonzero">
            <g id="Group-4" transform="translate(16.000000, 904.000000)">
                <g id="flaticon1565873252-svg" transform="translate(0.000000, 144.000000)">
                    <path d="M6,3.81818182 C4.8,3.81818182 3.81818182,4.8 3.81818182,6 C3.81818182,7.2 4.8,8.18181818 6,8.18181818 C7.2,8.18181818 8.18181818,7.2 8.18181818,6 C8.18181818,4.8 7.2,3.81818182 6,3.81818182 Z M10.8545455,5.45454545 C10.5818182,3.16363636 8.78181818,1.36363636 6.54545455,1.14545455 L6.54545455,0 L5.45454545,0 L5.45454545,1.14545455 C3.16363636,1.36363636 1.36363636,3.16363636 1.14545455,5.45454545 L0,5.45454545 L0,6.54545455 L1.14545455,6.54545455 C1.41818182,8.83636364 3.21818182,10.6363636 5.45454545,10.8545455 L5.45454545,12 L6.54545455,12 L6.54545455,10.8545455 C8.83636364,10.5818182 10.6363636,8.78181818 10.8545455,6.54545455 L12,6.54545455 L12,5.45454545 L10.8545455,5.45454545 Z M6,9.81818182 C3.87272727,9.81818182 2.18181818,8.12727273 2.18181818,6 C2.18181818,3.87272727 3.87272727,2.18181818 6,2.18181818 C8.12727273,2.18181818 9.81818182,3.87272727 9.81818182,6 C9.81818182,8.12727273 8.12727273,9.81818182 6,9.81818182 Z" id="Shape"></path>
                </g>
            </g>
        </g>
    </g>
</svg>