<?xml version="1.0" encoding="UTF-8"?>
<svg width="11px" height="11px" viewBox="0 0 11 11" version="1.1" xmlns="http://www.w3.org/2000/svg" xmlns:xlink="http://www.w3.org/1999/xlink">
    <!-- Generator: Sketch 55.2 (78181) - https://sketchapp.com -->
    <title>flaticon1566373318-svg</title>
    <desc>Created with Sketch.</desc>
    <g id="Page-1" stroke="none" stroke-width="1" fill="none" fill-rule="evenodd" opacity="0.900000036">
        <g id="Mobile-Copy-2" transform="translate(-25.000000, -508.000000)" fill="#B7B7B7" fill-rule="nonzero">
            <g id="Group-Copy-5" transform="translate(17.000000, 341.000000)">
                <g id="flaticon1566373318-svg" transform="translate(8.000000, 167.000000)">
                    <path d="M10.132,0.0498 C10.0888,0.012 10.0318,-0.0052 9.9742,0.0016 L3.7742,0.8038 C3.6746,0.8168 3.6,0.9014 3.6,1.002 L3.6,2.2054 L3.6,3.0478 L3.6,8.1246 C3.2348,7.6856 2.6546,7.4 2,7.4 C0.8972,7.4 0,8.2074 0,9.2 C0,10.1926 0.8972,11 2,11 C3.1028,11 4,10.1926 4,9.2 C4,9.1536 3.9962,9.108 3.9922,9.0626 C3.9948,9.0496 4,9.0378 4,9.0242 L4,3.2236 L9.8,2.473 L9.8,6.1244 C9.4348,5.6856 8.8546,5.4 8.2,5.4 C7.0972,5.4 6.2,6.2074 6.2,7.2 C6.2,8.1926 7.0972,9 8.2,9 C9.2928,9 10.1826,8.2068 10.1986,7.2266 C10.1986,7.224 10.2,7.2218 10.2,7.2192 L10.2,2.2454 L10.2,1.4032 L10.2,0.2 C10.2,0.1424 10.1752,0.0876 10.132,0.0498 Z" id="Path"></path>
                </g>
            </g>
        </g>
    </g>
</svg>