<?xml version="1.0" encoding="UTF-8"?>
<svg width="17px" height="20px" viewBox="0 0 17 20" version="1.1" xmlns="http://www.w3.org/2000/svg" xmlns:xlink="http://www.w3.org/1999/xlink">
    <!-- Generator: Sketch 55.2 (78181) - https://sketchapp.com -->
    <title>flaticon1570459461-svg</title>
    <desc>Created with Sketch.</desc>
    <g id="Page-1" stroke="none" stroke-width="1" fill="none" fill-rule="evenodd">
        <g id="Desktop-Copy-2" transform="translate(-860.000000, -684.000000)" fill="#FFFFFF" fill-rule="nonzero">
            <g id="Group-8" transform="translate(437.000000, 683.000000)">
                <g id="flaticon1570459461-svg" transform="translate(423.000000, 1.000000)">
                    <path d="M16.9781006,5.45489158 L16.9774915,5.43935793 C16.9688109,5.24762425 16.9630239,5.04477341 16.9595212,4.81907895 C16.9432261,3.71847587 16.0683175,2.80808359 14.9675621,2.74655825 C12.6725451,2.61848195 10.897143,1.87012671 9.38017786,0.391538752 L9.36723318,0.379203197 C8.87244152,-0.0744700195 8.12606604,-0.0744700195 7.63112207,0.379203197 L7.61817739,0.391538752 C6.10121224,1.87012671 4.32581018,2.61848195 2.03079314,2.74671053 C0.930190058,2.80808359 0.0551291228,3.71847587 0.0388340741,4.81923123 C0.0354836647,5.04340277 0.0295443275,5.24625365 0.0208637817,5.43935793 L0.0199500585,5.47545076 C-0.0246710331,7.81569809 -0.0801047953,10.7282529 0.894249513,13.3718628 C1.43000733,14.8256274 2.24141084,16.0893336 3.30576877,17.1281067 C4.51800074,18.3110989 6.10578094,19.2502741 8.02494519,19.9194384 C8.08738425,19.9412159 8.15226,19.9588816 8.21835404,19.9721308 C8.31155579,19.9907103 8.40536671,20 8.49917762,20 C8.59298854,20 8.68695173,19.9907103 8.78000121,19.9721308 C8.84609528,19.9588816 8.91142788,19.9410636 8.97417154,19.9191338 C10.8910514,19.2487512 12.4771564,18.3091191 13.6883224,17.1262792 C14.7522234,16.0872015 15.5636269,14.8231908 16.0998416,13.3691216 C17.0778509,10.7175926 17.0225694,7.79955532 16.9781006,5.45489158 Z M15.0009138,12.9638767 C13.9732578,15.7501828 11.8754569,17.6637122 8.5876584,18.8135051 C8.57593201,18.8174647 8.56344421,18.8209673 8.55049949,18.8235563 C8.51653875,18.8302571 8.48196881,18.8302571 8.44755119,18.823404 C8.43475875,18.820815 8.42227096,18.8174647 8.41069688,18.8135051 C5.11939571,17.6658443 3.02022417,15.7533809 1.99332967,12.9669225 C1.0952729,10.530123 1.14613793,7.85651193 1.19106359,5.49783747 L1.19136819,5.48474051 C1.20050561,5.28204191 1.20659723,5.06974901 1.2099476,4.83644008 C1.21725754,4.34774 1.60651193,3.94340889 2.09612573,3.91614889 C3.39485867,3.84365864 4.53581871,3.59268398 5.58418616,3.14890959 C6.631183,2.70574441 7.56106846,2.08104897 8.42668737,1.23918737 C8.47069934,1.2020285 8.52780823,1.20187622 8.57166788,1.23918737 C9.43743906,2.08104897 10.3673246,2.70574441 11.4141691,3.14890959 C12.4625365,3.59268398 13.6034966,3.84365864 14.9023818,3.91614889 C15.3919956,3.94340889 15.78125,4.34774 15.7884076,4.83659236 C15.7919103,5.07111965 15.7980019,5.28341251 15.8071394,5.48474051 C15.8519127,7.84615618 15.9015595,10.5218994 15.0009138,12.9638767 Z" id="Shape"></path>
                    <path d="M8.49887306,5.04523025 C5.7558175,5.04523025 3.52430558,7.2768945 3.52430558,10.0197977 C3.52430558,12.7628533 5.7558175,14.9945175 8.49887306,14.9945175 C11.2417763,14.9945175 13.4734405,12.7628533 13.4734405,10.0197977 C13.4734405,7.2768945 11.2417763,5.04523025 8.49887306,5.04523025 Z M8.49887306,13.8230994 C6.40168129,13.8230994 4.69557138,12.1169895 4.69557138,10.0197977 C4.69557138,7.922606 6.40168129,6.2164961 8.49887306,6.2164961 C10.5959125,6.2164961 12.3020224,7.922606 12.3020224,10.0197977 C12.3020224,12.1169895 10.5959125,13.8230994 8.49887306,13.8230994 Z" id="Shape"></path>
                    <path d="M9.92857579,8.47542031 L7.61802511,10.785971 L6.99089302,10.1588389 C6.76215279,9.93009867 6.39132554,9.93009867 6.16258526,10.1588389 C5.93399731,10.3875792 5.93399731,10.7584064 6.16258526,10.9869944 L7.20394737,12.0283565 C7.3183175,12.1427266 7.46817131,12.1998355 7.61802511,12.1998355 C7.76787891,12.1998355 7.91773271,12.1427266 8.03210285,12.0283565 L10.7568835,9.30357579 C10.9854715,9.07483552 10.9854715,8.70400827 10.7568835,8.47542031 C10.5281433,8.2465278 10.157316,8.2465278 9.92857579,8.47542031 Z" id="Path"></path>
                </g>
            </g>
        </g>
    </g>
</svg>