<?xml version="1.0" encoding="UTF-8"?>
<svg width="12px" height="19px" viewBox="0 0 12 19" version="1.1" xmlns="http://www.w3.org/2000/svg" xmlns:xlink="http://www.w3.org/1999/xlink">
    <!-- Generator: Sketch 55.2 (78181) - https://sketchapp.com -->
    <title>flaticon1570458976-svg</title>
    <desc>Created with Sketch.</desc>
    <g id="Page-1" stroke="none" stroke-width="1" fill="none" fill-rule="evenodd">
        <g id="Desktop-Copy-2" transform="translate(-437.000000, -686.000000)" fill="#FFFFFF" fill-rule="nonzero">
            <g id="Group-8" transform="translate(437.000000, 683.000000)">
                <g id="flaticon1570458976-svg" transform="translate(0.000000, 3.000000)">
                    <path d="M11.0528094,6.51638187 C10.9993666,6.40490509 10.8842677,6.33335807 10.7574794,6.33335807 L6.89461856,6.33335807 L10.7069397,0.486096653 C10.7705058,0.388573025 10.7744023,0.265072783 10.717063,0.164060867 C10.6596854,0.0627149662 10.5501256,0 10.4314741,0 L5.21580979,0 C5.09226853,0 4.97946169,0.0677618511 4.92407059,0.175119483 L0.0343733792,9.67513804 C-0.0161662255,9.77299565 -0.0106271154,9.88951932 0.048698664,9.98292379 C0.10836825,10.0763283 0.21300013,10.1333284 0.326112579,10.1333284 L3.67815282,10.1333284 L0.0255490038,18.5604757 C-0.0367182341,18.7045717 0.0187110678,18.8717497 0.155928196,18.9534648 C0.208721645,18.9848222 0.267398012,19 0.325768772,19 C0.419322432,19 0.511577266,18.9610351 0.575487137,18.8875955 L11.0068539,6.85422628 C11.0886417,6.75989406 11.1062523,6.62815552 11.0528094,6.51638187 Z" id="Path"></path>
                </g>
            </g>
        </g>
    </g>
</svg>