<?xml version="1.0" encoding="UTF-8"?>
<svg width="20px" height="23px" viewBox="0 0 20 23" version="1.1" xmlns="http://www.w3.org/2000/svg" xmlns:xlink="http://www.w3.org/1999/xlink">
    <!-- Generator: Sketch 55.2 (78181) - https://sketchapp.com -->
    <title>flaticon1570624100-svg</title>
    <desc>Created with Sketch.</desc>
    <g id="Page-1" stroke="none" stroke-width="1" fill="none" fill-rule="evenodd">
        <g id="Mobile" transform="translate(-16.000000, -477.000000)" fill="#595959" fill-rule="nonzero">
            <g id="flaticon1570624100-svg" transform="translate(16.000000, 477.000000)">
                <path d="M20,5.0661919 L20,0.651419467 C20,0.444175783 19.902439,0.24657134 19.7444832,0.126080826 C19.5818815,0.00559031233 19.3728223,-0.0329666521 19.1823461,0.0296884151 L6.50406504,4.20829944 C6.24390244,4.29505261 6.06736353,4.54567288 6.06736353,4.83003049 L6.06736353,9.24962254 L6.06736353,9.25444217 L6.06736353,17.703237 C5.40301974,17.2260946 4.55284553,16.9658351 3.66085947,16.9658351 C2.71777003,16.9658351 1.82113821,17.2598319 1.13821138,17.7899902 C0.404181185,18.363525 0,19.1394839 0,19.9829175 C0,20.8263511 0.404181185,21.60231 1.13821138,22.1758449 C1.82113821,22.7060031 2.71312427,23 3.66085947,23 C4.60859466,23 5.50058072,22.7060031 6.18350755,22.1758449 C6.91753775,21.60231 7.32171893,20.8263511 7.32171893,19.9829175 L7.32171893,9.72676498 L18.7456446,5.9578217 L18.7456446,13.5053475 C18.0813008,13.0282051 17.2311266,12.7679456 16.3391405,12.7679456 C15.3960511,12.7679456 14.4994193,13.0619424 13.8164925,13.5921007 C13.0824623,14.1656355 12.6782811,14.9415944 12.6782811,15.785028 C12.6782811,16.6284616 13.0824623,17.4044205 13.8164925,17.9779554 C14.4994193,18.5081136 15.3914053,18.8021105 16.3391405,18.8021105 C17.2868757,18.8021105 18.1788618,18.5081136 18.8617886,17.9779554 C19.5958188,17.4044205 20,16.6284616 20,15.785028 L20,5.07101152 C20,5.0661919 20,5.0661919 20,5.0661919 Z M3.66085947,21.6987024 C2.3554007,21.6987024 1.2543554,20.9131043 1.2543554,19.9829175 C1.2543554,19.0527308 2.3554007,18.2671326 3.66085947,18.2671326 C4.96631823,18.2671326 6.06736353,19.0527308 6.06736353,19.9829175 C6.06736353,20.9179239 4.96631823,21.6987024 3.66085947,21.6987024 Z M7.32171893,8.35799274 L7.32171893,5.30235331 L18.7456446,1.53822965 L18.7456446,4.59386908 L7.32171893,8.35799274 Z M16.3437863,17.5008129 C15.0383275,17.5008129 13.9372822,16.7152148 13.9372822,15.785028 C13.9372822,14.8548413 15.0383275,14.0692431 16.3437863,14.0692431 C17.6492451,14.0692431 18.7502904,14.8548413 18.7502904,15.785028 C18.7456446,16.7152148 17.6445993,17.5008129 16.3437863,17.5008129 Z" id="Shape"></path>
            </g>
        </g>
    </g>
</svg>