<?xml version="1.0" encoding="UTF-8"?>
<svg width="8px" height="11px" viewBox="0 0 8 11" version="1.1" xmlns="http://www.w3.org/2000/svg" xmlns:xlink="http://www.w3.org/1999/xlink">
    <!-- Generator: Sketch 55.2 (78181) - https://sketchapp.com -->
    <title>Shape</title>
    <desc>Created with Sketch.</desc>
    <g id="Page-1" stroke="none" stroke-width="1" fill="none" fill-rule="evenodd">
        <g id="Mobile-Copy-2" transform="translate(-96.000000, -402.000000)" fill="#A9A9A9" fill-rule="nonzero">
            <g id="flaticon1568710515-svg" transform="translate(96.000000, 401.430108)">
                <path d="M3.97356828,0.569892473 C1.7825309,0.569892473 0,2.35700793 0,4.55365905 C0,7.27977174 3.55595435,11.2818645 3.70735226,11.4509038 C3.849557,11.609695 4.09783671,11.6094157 4.23978431,11.4509038 C4.39118221,11.2818645 7.94713656,7.27977174 7.94713656,4.55365905 C7.94713656,2.35700793 6.16458424,0.569892473 3.97356828,0.569892473 Z M3.97356828,6.55800329 C2.87120293,6.55800329 1.9743873,5.65885961 1.9743873,4.55365905 C1.9743873,3.44845848 2.87122436,2.54933629 3.97356828,2.54933629 C5.0759122,2.54933629 5.97272784,3.44847997 5.97272784,4.55368053 C5.97272784,5.6588811 5.0759122,6.55800329 3.97356828,6.55800329 Z" id="Shape"></path>
            </g>
        </g>
    </g>
</svg>