<?xml version="1.0" encoding="UTF-8"?>
<svg width="20px" height="20px" viewBox="0 0 20 20" version="1.1" xmlns="http://www.w3.org/2000/svg" xmlns:xlink="http://www.w3.org/1999/xlink">
    <!-- Generator: Sketch 55.2 (78181) - https://sketchapp.com -->
    <title>flaticon1563896279-svg</title>
    <desc>Created with Sketch.</desc>
    <g id="Event" stroke="none" stroke-width="1" fill="none" fill-rule="evenodd">
        <g id="Mobile" transform="translate(-31.000000, -399.000000)" fill="#636262" fill-rule="nonzero">
            <g id="flaticon1563896279-svg" transform="translate(31.000000, 399.000000)">
                <path d="M19.2016993,6.10508384 C18.1472549,3.64540009 16.3554248,1.85654215 13.8765686,0.798739177 C12.6376144,0.270050224 11.3396078,0 9.98356209,0 C8.6277451,0 7.33931373,0.267499804 6.10173203,0.798739177 C3.64339869,1.85373015 1.84362745,3.64144367 0.787320261,6.10508384 C0.258006536,7.33935625 0,8.6324518 0,9.98901358 C0,11.3458369 0.258006536,12.6496573 0.787320261,13.8841913 C1.84362745,16.3478315 3.64362745,18.1462698 6.10173203,19.2015224 C7.33954248,19.7327618 8.62771242,20 9.98356209,20 C11.3394118,20 12.6376144,19.7299498 13.8763725,19.2015224 C16.3552288,18.1436867 18.1470588,16.3436462 19.201732,13.8841913 C19.7326471,12.6457009 20,11.3458369 20,9.98901358 C20,8.6324518 19.7328758,7.34354155 19.2016993,6.10508384 Z M17.6053595,14.4093816 C16.8203595,15.756363 15.7449346,16.8249562 14.3904902,17.6150305 C13.0442484,18.4004617 11.569183,18.7965615 9.98379085,18.7965615 C8.79196078,18.7965615 7.65470588,18.5668929 6.57202614,18.0963405 C5.48937908,17.6260169 4.55460784,17.0077036 3.77264706,16.2255421 C2.99068627,15.4431518 2.36830065,14.4987444 1.9029085,13.4136389 C1.43888889,12.3324897 1.21401961,11.1817599 1.21401961,9.98904627 C1.21401961,8.40255434 1.60359477,6.93416647 2.38418301,5.59091266 C3.16754902,4.24275419 4.24320261,3.17301656 5.5880719,2.38523111 C6.93271242,1.59747835 8.39820261,1.20347119 9.98356209,1.20347119 C11.569183,1.20347119 13.0439869,1.59979989 14.3902614,2.38523111 C15.7447059,3.17533809 16.8178105,4.24504303 17.6051307,5.59087996 C18.392451,6.93648801 18.7860131,8.40255434 18.7860131,9.98901358 C18.7860131,11.5755382 18.3950327,13.0539316 17.6053595,14.4093816 Z" id="Shape"></path>
                <path d="M10.4678403,9.61982564 L10.4678403,4.16150841 C10.4678403,3.83488294 10.1853218,3.57142857 9.86103665,3.57142857 C9.55775989,3.57142857 9.28571429,3.83488294 9.28571429,4.16150841 L9.28571429,9.70409576 C9.28571429,9.71467677 9.30669137,9.75693779 9.30669137,9.78842887 C9.28571429,9.97813113 9.33817263,10.1361849 9.46359747,10.2627475 L12.5914966,13.413304 C12.8007985,13.6241368 13.1877648,13.6241368 13.3969104,13.413304 C13.6374435,13.1709801 13.6216247,12.8193822 13.3969104,12.5914183 L10.4678403,9.61982564 Z" id="Path"></path>
            </g>
        </g>
    </g>
</svg>