<?xml version="1.0" encoding="UTF-8"?>
<svg width="16px" height="23px" viewBox="0 0 16 23" version="1.1" xmlns="http://www.w3.org/2000/svg" xmlns:xlink="http://www.w3.org/1999/xlink">
    <!-- Generator: Sketch 55.2 (78181) - https://sketchapp.com -->
    <title>flaticon1563896138-svg</title>
    <desc>Created with Sketch.</desc>
    <g id="Event" stroke="none" stroke-width="1" fill="none" fill-rule="evenodd">
        <g id="Mobile" transform="translate(-32.000000, -457.000000)" fill="#595959" fill-rule="nonzero">
            <g id="flaticon1563896138-svg" transform="translate(32.000000, 457.000000)">
                <path d="M8,0.552552553 C3.5888,0.552552553 0,4.08186759 0,8.4199512 C0,9.88564757 0.412844444,11.3160281 1.19417778,12.5569791 L7.54462222,22.6209991 C7.66626667,22.8137941 7.88057778,22.9309309 8.11106667,22.9309309 C8.11284444,22.9309309 8.11457778,22.9309309 8.11635556,22.9309309 C8.34884444,22.9291389 8.5636,22.8083743 8.68302222,22.6122139 L14.8716,12.4506818 C15.6098222,11.2359554 16,9.84215834 16,8.4199512 C16,4.08186759 12.4112,0.552552553 8,0.552552553 Z M13.7273778,11.7774947 L8.10097778,21.0159187 L2.32742222,11.8661341 C1.67706667,10.833232 1.32444444,9.64158338 1.32444444,8.4199512 C1.32444444,4.80488152 4.324,1.85504411 8,1.85504411 C11.676,1.85504411 14.6711111,4.80488152 14.6711111,8.4199512 C14.6711111,9.60534964 14.3417333,10.766534 13.7273778,11.7774947 Z" id="Shape"></path>
                <path d="M8,4.28228228 C5.706176,4.28228228 3.84,6.09486877 3.84,8.32282282 C3.84,10.5365452 5.675808,12.3633634 8,12.3633634 C10.3528498,12.3633634 12.16,10.5122122 12.16,8.32282282 C12.16,6.09486877 10.293824,4.28228228 8,4.28228228 Z M8,11.0254955 C6.46278756,11.0254955 5.21742222,9.8118518 5.21742222,8.32282282 C5.21742222,6.83752012 6.470784,5.62015015 8,5.62015015 C9.529216,5.62015015 10.7779556,6.83752012 10.7779556,8.32282282 C10.7779556,9.79012267 9.56157156,11.0254955 8,11.0254955 Z" id="Shape"></path>
            </g>
        </g>
    </g>
</svg>