<?xml version="1.0" encoding="UTF-8"?>
<svg width="19px" height="20px" viewBox="0 0 19 20" version="1.1" xmlns="http://www.w3.org/2000/svg" xmlns:xlink="http://www.w3.org/1999/xlink">
    <!-- Generator: Sketch 55.2 (78181) - https://sketchapp.com -->
    <title>flaticon1570459561-svg</title>
    <desc>Created with Sketch.</desc>
    <g id="Page-1" stroke="none" stroke-width="1" fill="none" fill-rule="evenodd">
        <g id="Desktop-Copy-2" transform="translate(-625.000000, -684.000000)" fill="#FFFFFF" fill-rule="nonzero">
            <g id="Group-8" transform="translate(437.000000, 683.000000)">
                <g id="flaticon1570459561-svg" transform="translate(188.000000, 1.000000)">
                    <path d="M18.5768282,2.2723348 L13.8351542,0.0499559471 C13.7081938,-0.0095154185 13.5627313,-0.0162114537 13.4310132,0.0315418502 C13.2991189,0.0792951542 13.19163,0.177356828 13.1321586,0.304317181 L9.46881057,8.12079295 C9.46123348,8.12140969 9.45409692,8.12167401 9.4477533,8.12167401 C9.44140969,8.12167401 9.43427313,8.12140969 9.42669604,8.12079295 L5.76334802,0.304317181 C5.70387665,0.177356828 5.59629956,0.0792951542 5.46449339,0.0315418502 C5.33268722,-0.0162114537 5.18731278,-0.0095154185 5.06035242,0.0499559471 L0.318590308,2.2723348 C0.0542731278,2.39621145 -0.0596475771,2.71101322 0.0642290749,2.9753304 L3.88211454,11.121674 C3.54431718,11.2777974 3.28563877,11.5761233 3.18220264,11.9622026 C3.02546256,12.5470485 3.27585903,13.137533 3.80511013,13.4315419 C3.9123348,13.4911013 3.92837004,13.58837 3.92837004,13.6409692 C3.92837004,13.6935683 3.9123348,13.790837 3.80511013,13.8503965 C3.27585903,14.1444053 3.02546256,14.734978 3.18220264,15.3198238 C3.33894273,15.9046696 3.85242291,16.2912775 4.45629956,16.2808811 C4.58061674,16.2825551 4.6414978,16.3550661 4.6677533,16.4006167 C4.69400881,16.4461674 4.72881057,16.5384141 4.66581498,16.6437004 C4.35444934,17.1629956 4.43286344,17.7994714 4.86096916,18.2276652 C5.28898678,18.6557709 5.92563877,18.7342731 6.44502203,18.4229075 C6.55022026,18.3598238 6.64237885,18.3945374 6.68801762,18.4208811 C6.73365639,18.4472247 6.80977974,18.5096916 6.8077533,18.6323348 C6.79770925,19.2377093 7.18396476,19.7497797 7.76881057,19.9065198 C7.88502203,19.9377093 8.0014978,19.9526872 8.11577093,19.9526872 C8.57656388,19.9526872 9.00255507,19.7076652 9.23814978,19.2835242 C9.29770925,19.1762996 9.39497797,19.1602643 9.44757709,19.1602643 C9.50017621,19.1602643 9.59744493,19.1762996 9.65700441,19.2835242 C9.95101322,19.8128634 10.5414097,20.0629956 11.1263436,19.9064317 C11.7111894,19.7496916 12.0974449,19.2376211 12.0874009,18.6322467 C12.0853744,18.5096035 12.1615859,18.4470485 12.2071366,18.420793 C12.2527753,18.3945374 12.3449339,18.3597357 12.4502203,18.4228194 C12.9694273,18.7340969 13.6060793,18.6557709 14.034185,18.2275771 C14.4622907,17.7994714 14.540793,17.1629075 14.2294273,16.6436123 C14.1663436,16.5384141 14.2010573,16.4461674 14.2274009,16.4005286 C14.2537445,16.354978 14.3165639,16.2813216 14.4388546,16.280793 C15.0467841,16.2901322 15.5562996,15.9045815 15.7129515,15.3197357 C15.8696035,14.7348899 15.6192952,14.1444053 15.0900441,13.8503084 C14.9828194,13.7907489 14.9667841,13.6934802 14.9667841,13.6408811 C14.9667841,13.5881938 14.9828194,13.4910132 15.0900441,13.4314537 C15.6192952,13.1374449 15.8696916,12.5469604 15.7129515,11.9621145 C15.6096035,11.5762115 15.350837,11.2773568 15.0132159,11.1211454 L18.8309251,2.97524229 C18.9550661,2.71101322 18.8412335,2.39621145 18.5768282,2.2723348 Z M14.6918943,12.2357709 C14.7100441,12.3032599 14.7191189,12.4282819 14.5768282,12.5073128 C14.1591189,12.7392952 13.9096916,13.1631718 13.9096916,13.6410573 C13.9096916,14.1188546 14.1591189,14.5427313 14.5767401,14.7747137 C14.7190308,14.8537445 14.7099559,14.9787665 14.6918943,15.0462555 C14.6740088,15.1129515 14.6204405,15.2238767 14.4622026,15.2238767 C14.4603524,15.2238767 14.4584141,15.2238767 14.4564758,15.2238767 C13.9806167,15.2152423 13.550837,15.4582379 13.3118943,15.8720705 C13.0729515,16.2859031 13.0770044,16.7776211 13.3228194,17.187489 C13.4065198,17.3270485 13.3361233,17.4307489 13.286696,17.4800881 C13.2372687,17.5294273 13.1336564,17.5999119 12.9940969,17.5162115 C12.5842291,17.2703084 12.092511,17.2663436 11.6786784,17.5052863 C11.2648458,17.744141 11.022467,18.1720705 11.0303965,18.6499559 C11.0330396,18.8125991 10.9202643,18.8672247 10.8527753,18.8852863 C10.7852863,18.9034361 10.6602643,18.9124229 10.5813216,18.7702203 C10.3492511,18.352511 9.92546256,18.1030837 9.44757709,18.1030837 C8.96969163,18.1030837 8.54590308,18.352511 8.3138326,18.7702203 C8.23488987,18.912511 8.10986784,18.9036123 8.04237885,18.8852863 C7.97488987,18.8672247 7.86211454,18.8125991 7.86475771,18.6498678 C7.87268722,18.1720705 7.63030837,17.7442291 7.21647577,17.5052863 C6.80255507,17.2662555 6.31092511,17.2703965 5.90114537,17.5162115 C5.76167401,17.6 5.65788546,17.5295154 5.60845815,17.4800881 C5.55903084,17.4306608 5.48872247,17.3270485 5.57242291,17.187489 C5.81814978,16.7776211 5.82220264,16.2859031 5.58325991,15.8720705 C5.34431718,15.458326 4.91621145,15.2154185 4.43867841,15.2238767 C4.27409692,15.2235242 4.22132159,15.1137445 4.20325991,15.0462555 C4.18511013,14.9787665 4.17603524,14.8537445 4.31832599,14.7747137 C4.73603524,14.5427313 4.98546256,14.1188546 4.98546256,13.6410573 C4.98546256,13.1631718 4.73603524,12.7393833 4.31832599,12.5073128 C4.17603524,12.4282819 4.18511013,12.303348 4.20325991,12.2357709 C4.22132159,12.1682819 4.27497797,12.0582379 4.43867841,12.0581498 C4.91462555,12.0659912 5.34431718,11.8237004 5.58325991,11.4099559 C5.82220264,10.9961233 5.81814978,10.5044053 5.5723348,10.0944493 C5.48863436,9.95497797 5.55903084,9.85127753 5.60845815,9.80185022 C5.65788546,9.75242291 5.7615859,9.68211454 5.90114537,9.76581498 C6.31092511,10.0115419 6.80264317,10.0155066 7.21656388,9.77665198 C7.63039648,9.53770925 7.87268722,9.10986784 7.86475771,8.63207048 C7.86211454,8.46933921 7.97488987,8.41471366 8.04237885,8.39665198 C8.10969163,8.3784141 8.23480176,8.36951542 8.3138326,8.51171806 C8.54590308,8.92942731 8.96969163,9.17885463 9.44757709,9.17885463 C9.92546256,9.17885463 10.3492511,8.92942731 10.5813216,8.51171806 C10.6603524,8.36951542 10.7854626,8.3785022 10.8527753,8.39665198 C10.9202643,8.41471366 11.0330396,8.46933921 11.0303965,8.63207048 C11.022467,9.10977974 11.2648458,9.53770925 11.6785903,9.77665198 C12.092511,10.0155947 12.584141,10.01163 12.9940088,9.76572687 C13.1334802,9.68202643 13.2372687,9.75242291 13.2866079,9.80185022 C13.3359471,9.85127753 13.4063436,9.95488987 13.3227313,10.0944493 C13.3227313,10.0944493 13.3227313,10.0945374 13.3227313,10.0945374 C13.0770044,10.5043172 13.0729515,10.9960352 13.3118943,11.4098678 C13.5507489,11.8237004 13.9767401,12.0644934 14.4564758,12.0580617 C14.6185903,12.0592952 14.6738326,12.1682819 14.6918943,12.2357709 L14.6918943,12.2357709 Z M5.03030837,1.23171806 L7.8969163,7.34828194 C7.85427313,7.3554185 7.81154185,7.36405286 7.76889868,7.37550661 C7.18405286,7.5322467 6.79779736,8.04431718 6.80784141,8.64969163 C6.80986784,8.77242291 6.73365639,8.83488987 6.68810573,8.86114537 C6.64246696,8.88740088 6.55022026,8.92211454 6.44511013,8.85920705 C5.92563877,8.5477533 5.289163,8.62625551 4.86105727,9.05436123 C4.62370044,9.29171806 4.49427313,9.59321586 4.47876652,9.90325991 L1.24590308,3.00528634 L5.03030837,1.23171806 Z M14.416652,9.90317181 C14.4011454,9.59321586 14.2717181,9.29171806 14.0343612,9.05427313 C13.6061674,8.6260793 12.9696035,8.5476652 12.4503965,8.85903084 C12.3452863,8.92211454 12.2530396,8.88740088 12.2073128,8.86105727 C12.161674,8.83471366 12.0855507,8.7722467 12.0875771,8.64960352 C12.0976211,8.04414097 11.7113656,7.53207048 11.1265198,7.3754185 C11.0837885,7.36396476 11.0411454,7.3553304 10.9985022,7.34819383 L13.8651101,1.23162996 L17.6495154,3.00528634 L14.416652,9.90317181 Z" id="Shape"></path>
                    <path d="M11.0238767,13.7592952 C10.9723348,13.6888987 10.9723348,13.5931278 11.0238767,13.5227313 L11.7594714,12.5178855 C11.8622907,12.3774449 11.7493392,12.181674 11.5762115,12.2005286 L10.3382379,12.3351542 C10.2514537,12.3445815 10.1685463,12.2967401 10.1333921,12.2168282 L9.63101322,11.0773568 C9.56079295,10.9180617 9.33480176,10.9180617 9.2645815,11.0773568 L8.76220264,12.2168282 C8.72696035,12.296652 8.64405286,12.3445815 8.55735683,12.3351542 L7.31938326,12.2005286 C7.14634361,12.181674 7.03330396,12.3774449 7.13612335,12.5178855 L7.87171806,13.5227313 C7.92325991,13.5931278 7.92325991,13.6888987 7.87171806,13.7592952 L7.13612335,14.764141 C7.03330396,14.9045815 7.14625551,15.1003524 7.31938326,15.0814978 L8.55735683,14.9468722 C8.64414097,14.9374449 8.72704846,14.9852863 8.76220264,15.0651982 L9.2645815,16.2046696 C9.33480176,16.3639648 9.56079295,16.3639648 9.63101322,16.2046696 L10.1333921,15.0651982 C10.1686344,14.9852863 10.2515419,14.9374449 10.3382379,14.9468722 L11.5762115,15.0814978 C11.7492511,15.1003524 11.8622907,14.9045815 11.7594714,14.764141 L11.0238767,13.7592952 Z" id="Path"></path>
                </g>
            </g>
        </g>
    </g>
</svg>