<?xml version="1.0" encoding="UTF-8"?>
<svg width="19px" height="19px" viewBox="0 0 19 19" version="1.1" xmlns="http://www.w3.org/2000/svg" xmlns:xlink="http://www.w3.org/1999/xlink">
    <!-- Generator: Sketch 55.2 (78181) - https://sketchapp.com -->
    <title>flaticon1570712312-svg</title>
    <desc>Created with Sketch.</desc>
    <g id="Page-1" stroke="none" stroke-width="1" fill="none" fill-rule="evenodd">
        <g id="Desktop-HD-Copy-5" transform="translate(-1325.000000, -31.000000)" fill="#9E9E9E" fill-rule="nonzero">
            <g id="flaticon1570712312-svg" transform="translate(1325.000000, 31.000000)">
                <path d="M9.49345596,12.5 C8.94446945,12.5 8.5,12.9545455 8.5,13.5 C8.5,14.0324516 8.93138137,14.5 9.49345596,14.5 C10.0555306,14.5 10.5,14.0324888 10.5,13.5 C10.5,12.9545455 10.0425175,12.5 9.49345596,12.5 Z" id="Path"></path>
                <path d="M9.14266622,5.5 C7.33169249,5.5 6.5,6.51164562 6.5,7.1945291 C6.5,7.68774488 6.94265082,7.91536062 7.30486866,7.91536062 C8.02922737,7.91536062 7.73412682,6.94162676 9.10241124,6.94162676 C9.77316078,6.94162676 10.3097527,7.21985198 10.3097527,7.80155275 C10.3097527,8.4844725 9.5585317,8.87646931 9.11584239,9.23055435 C8.72683922,9.54669134 8.21707111,10.0651937 8.21707111,11.1527355 C8.21707111,11.810296 8.40483787,12 8.95486097,12 C9.61217935,12 9.74629847,11.7218111 9.74629847,11.4815339 C9.74629847,10.823937 9.75976811,10.4445654 10.497558,9.90081265 C10.8597373,9.63524888 12,8.77532288 12,7.58659846 C12,6.39787404 10.8597373,5.5 9.14266622,5.5 Z" id="Path"></path>
                <path d="M9.5,0 C4.24961719,0 0,4.24891211 0,9.5 L0,18.2578125 C0,18.6677227 0.332277344,19 0.7421875,19 L9.5,19 C14.7503457,19 19,14.7510879 19,9.5 C19,4.24961719 14.7510879,0 9.5,0 Z M9.5,17.515625 L1.484375,17.515625 L1.484375,9.5 C1.484375,5.06999414 5.06940039,1.484375 9.5,1.484375 C13.9300059,1.484375 17.515625,5.06940039 17.515625,9.5 C17.515625,13.9300059 13.9305996,17.515625 9.5,17.515625 Z" id="Shape"></path>
            </g>
        </g>
    </g>
</svg>