<?xml version="1.0" encoding="UTF-8"?>
<svg width="15px" height="15px" viewBox="0 0 15 15" version="1.1" xmlns="http://www.w3.org/2000/svg" xmlns:xlink="http://www.w3.org/1999/xlink">
    <!-- Generator: Sketch 55.2 (78181) - https://sketchapp.com -->
    <title>flaticon1567680345-svg</title>
    <desc>Created with Sketch.</desc>
    <g id="Page-1" stroke="none" stroke-width="1" fill="none" fill-rule="evenodd">
        <g id="Mobile-Copy-7" transform="translate(-289.000000, -102.000000)" fill="#3D3D3D" fill-rule="nonzero">
            <g id="flaticon1567680345-svg" transform="translate(289.000000, 102.000000)">
                <path d="M12.8058811,2.19419547 C9.88038922,-0.731254192 5.1200076,-0.731542783 2.19422713,2.19419547 C-0.731553339,5.11993372 -0.731264744,9.87995806 2.19422713,12.8056963 C5.11971901,15.7314346 9.88010062,15.7314346 12.8058811,12.8056963 C15.731373,9.87995806 15.731373,5.11964513 12.8058811,2.19419547 Z M10.4590231,10.4588721 C10.23363,10.6842619 9.86826821,10.6842619 9.64287518,10.4588721 L7.50005411,8.31608199 L5.25535886,10.5607449 C5.02996583,10.7861346 4.66460401,10.7861346 4.43921098,10.5607449 C4.21381795,10.3353551 4.21381795,9.96999853 4.43921098,9.74460875 L6.68390624,7.49994589 L4.54108517,5.35715574 C4.31569214,5.13176596 4.31569214,4.76612083 4.54108517,4.54101964 C4.7664782,4.31562986 5.13184001,4.31562986 5.35723304,4.54101964 L7.50005411,6.68380979 L9.5407124,4.64318095 C9.76610543,4.41779117 10.1314672,4.41779117 10.3568603,4.64318095 C10.5822533,4.86857073 10.5822533,5.23392727 10.3568603,5.45931705 L8.31620199,7.49994589 L10.4590231,9.64273604 C10.6844161,9.86812582 10.6844161,10.2334824 10.4590231,10.4588721 Z" id="Shape"></path>
            </g>
        </g>
    </g>
</svg>