<?xml version="1.0" encoding="UTF-8"?>
<svg width="178px" height="97px" viewBox="0 0 178 97" version="1.1" xmlns="http://www.w3.org/2000/svg" xmlns:xlink="http://www.w3.org/1999/xlink">
    <!-- Generator: Sketch 51.2 (57519) - http://www.bohemiancoding.com/sketch -->
    <title>Group 2</title>
    <desc>Created with Sketch.</desc>
    <defs>
        <path d="M56.413,46 L48.151,34.012 C47.8629986,33.615998 47.6830004,32.7520067 47.611,31.42 L47.395,31.42 L47.395,46 L36.595,46 L36.595,12.25 L46.747,12.25 L55.009,24.238 C55.2970014,24.634002 55.4769996,25.4979933 55.549,26.83 L55.765,26.83 L55.765,12.25 L66.565,12.25 L66.565,46 L56.413,46 Z M71.505,46 L71.505,12.25 L82.305,12.25 L82.305,46 L71.505,46 Z M104.525,36.064 L104.525,34.606 L101.771,34.606 L101.771,26.344 L114.785,26.344 L114.785,44.38 C110.500979,46.0000081 106.073023,46.81 101.501,46.81 C95.3449692,46.81 91.1150115,45.3160149 88.811,42.328 C87.622994,40.7799923 86.7950023,38.9620104 86.327,36.874 C85.8589976,34.7859896 85.625,32.2030154 85.625,29.125 C85.625,26.0469846 85.8679976,23.4730103 86.354,21.403 C86.8400024,19.3329897 87.7129937,17.5240077 88.973,15.976 C91.3490119,12.9519849 95.938966,11.44 102.743,11.44 C104.147007,11.44 105.973989,11.5839986 108.224,11.872 C110.474011,12.1600014 112.120995,12.4839982 113.165,12.844 L111.545,21.106 C108.628985,20.6019975 105.992012,20.35 103.634,20.35 C101.275988,20.35 99.6200048,20.5299982 98.666,20.89 C97.7119952,21.2500018 97.235,21.9699946 97.235,23.05 L97.235,38.332 L100.799,38.332 C102.095006,38.332 103.039997,38.1970013 103.634,37.927 C104.228003,37.6569986 104.525,37.0360049 104.525,36.064 Z M138.085,46 L138.085,34.066 L129.985,34.066 L129.985,46 L119.185,46 L119.185,12.25 L129.985,12.25 L129.985,24.184 L138.085,24.184 L138.085,12.25 L148.885,12.25 L148.885,46 L138.085,46 Z M177.855,20.89 L170.025,20.89 L170.025,46 L159.225,46 L159.225,20.89 L151.395,20.89 L151.395,12.25 L177.855,12.25 L177.855,20.89 Z M38.986,75.064 L38.986,73.606 L36.232,73.606 L36.232,65.344 L49.246,65.344 L49.246,83.38 C44.9619786,85.0000081 40.5340229,85.81 35.962,85.81 C29.8059692,85.81 25.5760115,84.3160149 23.272,81.328 C22.0839941,79.7799923 21.2560024,77.9620104 20.788,75.874 C20.3199977,73.7859896 20.086,71.2030154 20.086,68.125 C20.086,65.0469846 20.3289976,62.4730103 20.815,60.403 C21.3010024,58.3329897 22.1739937,56.5240077 23.434,54.976 C25.8100119,51.9519849 30.399966,50.44 37.204,50.44 C38.608007,50.44 40.4349888,50.5839986 42.685,50.872 C44.9350113,51.1600014 46.5819948,51.4839982 47.626,51.844 L46.006,60.106 C43.0899854,59.6019975 40.4530118,59.35 38.095,59.35 C35.7369882,59.35 34.0810048,59.5299982 33.127,59.89 C32.1729952,60.2500018 31.696,60.9699946 31.696,62.05 L31.696,77.332 L35.26,77.332 C36.5560065,77.332 37.500997,77.1970013 38.095,76.927 C38.689003,76.6569986 38.986,76.0360049 38.986,75.064 Z M63.636,51.25 L63.636,76.576 L67.47,76.576 C68.8380068,76.576 69.7739975,76.4050017 70.278,76.063 C70.7820025,75.7209983 71.034,74.9380061 71.034,73.714 L71.034,51.25 L81.834,51.25 L81.834,70.204 C81.834,73.2640153 81.636002,75.7299906 81.24,77.602 C80.843998,79.4740094 80.1060054,81.0579935 79.026,82.354 C77.9459946,83.6500065 76.4700094,84.5499975 74.598,85.054 C72.7259906,85.5580025 70.2960149,85.81 67.308,85.81 C64.3199851,85.81 61.8990093,85.5580025 60.045,85.054 C58.1909907,84.5499975 56.7240054,83.6500065 55.644,82.354 C54.5639946,81.0579935 53.826002,79.4740094 53.43,77.602 C53.033998,75.7299906 52.836,73.2640153 52.836,70.204 L52.836,51.25 L63.636,51.25 Z M85.964,85 L85.964,51.25 L96.764,51.25 L96.764,85 L85.964,85 Z M101.704,85 L101.704,51.25 L116.824,51.25 C122.90803,51.25 127.083989,52.545987 129.352,55.138 C131.620011,57.730013 132.754,62.0589697 132.754,68.125 C132.754,74.1910303 131.620011,78.519987 129.352,81.112 C127.083989,83.704013 122.90803,85 116.824,85 L101.704,85 Z M116.986,59.89 L112.504,59.89 L112.504,76.36 L116.986,76.36 C118.462007,76.36 119.532997,76.1890017 120.199,75.847 C120.865003,75.5049983 121.198,74.7220061 121.198,73.498 L121.198,62.752 C121.198,61.5279939 120.865003,60.7450017 120.199,60.403 C119.532997,60.0609983 118.462007,59.89 116.986,59.89 Z M157.674,72.256 L146.874,72.256 L146.874,76.36 L160.104,76.36 L160.104,85 L136.074,85 L136.074,51.25 L159.834,51.25 L158.484,59.89 L146.874,59.89 L146.874,64.426 L157.674,64.426 L157.674,72.256 Z" id="path-1"></path>
        <filter x="-0.6%" y="-1.3%" width="101.3%" height="105.4%" filterUnits="objectBoundingBox" id="filter-2">
            <feOffset dx="0" dy="2" in="SourceAlpha" result="shadowOffsetOuter1"></feOffset>
            <feColorMatrix values="0 0 0 0 0   0 0 0 0 0   0 0 0 0 0  0 0 0 0.5 0" type="matrix" in="shadowOffsetOuter1"></feColorMatrix>
        </filter>
    </defs>
    <g id="Page-1" stroke="none" stroke-width="1" fill="none" fill-rule="evenodd">
        <g id="Desktop-HD" transform="translate(-285.000000, -122.000000)">
            <g id="Group-4" transform="translate(285.000000, 105.000000)">
                <g id="Group-2" transform="translate(0.000000, 17.000000)">
                    <polygon id="Path-2" fill="#000000" points="22.0431523 -2.84217094e-14 0 96.2313106 42.235626 96.2313106 64.2131796 -2.84217094e-14"></polygon>
                    <g id="NIGHT-GUIDE">
                        <use fill="black" fill-opacity="1" filter="url(#filter-2)" xlink:href="#path-1"></use>
                        <use fill="#FFFFFF" fill-rule="evenodd" xlink:href="#path-1"></use>
                    </g>
                </g>
            </g>
        </g>
    </g>
</svg>