<?xml version="1.0" encoding="UTF-8"?>
<svg width="14px" height="14px" viewBox="0 0 14 14" version="1.1" xmlns="http://www.w3.org/2000/svg" xmlns:xlink="http://www.w3.org/1999/xlink">
    <!-- Generator: Sketch 55.2 (78181) - https://sketchapp.com -->
    <title>flaticon1564747555-svg</title>
    <desc>Created with Sketch.</desc>
    <g id="Event" stroke="none" stroke-width="1" fill="none" fill-rule="evenodd">
        <g id="Desktop-Copy-2" transform="translate(-112.000000, -841.000000)" fill="#FFFFFF" fill-rule="nonzero">
            <g id="Group-7" transform="translate(35.000000, 757.000000)">
                <g id="flaticon1564747555-svg" transform="translate(77.000000, 84.000000)">
                    <path d="M13.9995039,9.86853444 C13.9995039,9.43678485 13.6695947,9.08760488 13.2598128,9.08760488 C12.8535036,9.0885997 12.5196256,9.43678485 12.5196256,9.86853444 L12.5196256,11.4851084 L9.53407171,8.49021864 C9.24533918,8.20023015 8.77800921,8.20023015 8.48927667,8.49021864 C8.20054414,8.77970973 8.20054414,9.24975969 8.48927667,9.53925077 L11.4604436,12.5172287 L9.85554711,12.5172287 C9.41847948,12.5182235 9.06624563,12.8499942 9.06624563,13.258863 C9.06624563,13.6687267 9.41847948,14 9.85554711,14 L13.2097063,14 C13.6467739,14 13.9985117,13.6692241 14,13.258863 C13.9985117,13.2479201 13.9970234,13.2394641 13.9955351,13.2285212 C13.9970234,13.2145938 14,13.1996716 14,13.1852467 L14,9.86853444 L13.9995039,9.86853444 L13.9995039,9.86853444 Z" id="Path"></path>
                    <path d="M4.46474271,8.49013998 L1.48080633,11.4848021 L1.48080633,9.86835104 C1.48080633,9.43663426 1.14743888,9.08847557 0.740155124,9.08748083 C0.331383125,9.08748083 0.000992165046,9.43663426 0.000992165046,9.86835104 L0,13.1853087 C0,13.1997324 0.00396866018,13.2146535 0.00496082523,13.2285798 C0.00396866018,13.2390246 0.00198433009,13.2474799 0.000992165046,13.2589194 C0.00198433009,13.6692492 0.354202921,14 0.790755542,14 L4.14526556,14 C4.5813221,14 4.93403677,13.6687519 4.93403677,13.2589194 C4.93403677,12.8500816 4.5813221,12.5183361 4.14526556,12.5173413 L2.5404386,12.5173413 L5.51147683,9.53958976 C5.79920469,9.25012067 5.79920469,8.78010644 5.51147683,8.49063735 C5.22226072,8.20017353 4.7544549,8.20017353 4.46474271,8.49013998 Z" id="Path"></path>
                    <path d="M9.53418098,5.50910449 L12.5199935,2.51630188 L12.5199935,4.13282315 C12.5199935,4.5630665 12.8539005,4.91124032 13.2602448,4.91273249 C13.6700623,4.91273249 14,4.5630665 14,4.13282315 L14,0.81472672 C14,0.800302377 13.9970231,0.785380642 13.9955347,0.772448472 C13.9970231,0.762003257 13.9985116,0.752055434 14,0.74161022 C13.9985116,0.330765122 13.6467433,0 13.210134,0 L9.85568423,0 C9.41857874,0 9.06631438,0.330765122 9.06631438,0.74161022 C9.06631438,1.14996836 9.41857874,1.48272305 9.85568423,1.48371783 L11.4607197,1.48371783 L8.48929543,4.46159871 C8.20053789,4.75058297 8.20053789,5.21962283 8.48929543,5.5086071 C8.77805298,5.80007832 9.24542344,5.80007832 9.53418098,5.50910449 Z" id="Path"></path>
                    <path d="M2.5404386,1.48370173 L4.14476948,1.48370173 C4.58082602,1.48270696 4.93354069,1.14995589 4.93354069,0.741602174 C4.93354069,0.330761533 4.58082602,0 4.14476948,0 L0.790755542,0 C0.354202921,0 0.00198433009,0.330761533 0.000992165046,0.741602174 C0.00198433009,0.752047275 0.00396866018,0.761994991 0.00496082523,0.772440092 C0.00396866018,0.785372122 0,0.799796309 0,0.814717882 L0.000992165046,4.1332757 C0.000992165046,4.56351439 0.331383125,4.91317658 0.740155124,4.91317658 C1.14743888,4.91168442 1.48080633,4.56351439 1.48080633,4.1332757 L1.48080633,2.51677197 L4.46474271,5.50904472 C4.7544549,5.8000154 5.22226072,5.8000154 5.51147683,5.50904472 C5.79920469,5.22006359 5.79920469,4.75102882 5.51147683,4.46204769 L2.5404386,1.48370173 Z" id="Path"></path>
                </g>
            </g>
        </g>
    </g>
</svg>