<?xml version="1.0" encoding="UTF-8"?>
<svg width="31px" height="31px" viewBox="0 0 31 31" version="1.1" xmlns="http://www.w3.org/2000/svg" xmlns:xlink="http://www.w3.org/1999/xlink">
    <!-- Generator: Sketch 55.2 (78181) - https://sketchapp.com -->
    <title>Group 4</title>
    <desc>Created with Sketch.</desc>
    <g id="Company" stroke="none" stroke-width="1" fill="none" fill-rule="evenodd">
        <g id="Filters" transform="translate(-87.000000, -1305.000000)">
            <g id="Group-3" transform="translate(-68.000000, 941.000000)">
                <g id="Group-4" transform="translate(158.000000, 367.000000)">
                    <circle id="Oval" stroke="#171717" stroke-width="5" fill="#FFFFFF" cx="12.5" cy="12.5" r="12.5"></circle>
                    <g id="flaticon1565272011-svg" transform="translate(8.000000, 6.000000)" fill="#000000" fill-rule="nonzero">
                        <path d="M8.83176074,3.30194616 C8.7850228,3.1249598 8.69011212,2.93637586 8.61989837,2.77126468 C7.77971448,0.731140595 5.94393009,0 4.46162616,0 C2.47729388,0 0.29178394,1.3443931 0,4.11550355 L0,4.68165633 C0,4.7052833 0.00805931786,4.91752505 0.0195072125,5.02369219 C0.183074732,6.34433494 1.21445372,7.747888 1.98472913,9.06853075 C2.8134346,10.4834655 3.67333939,11.8753593 4.52527645,13.266667 C5.05059744,12.3587251 5.57402572,11.4388464 6.08737984,10.5544081 C6.22728838,10.2948507 6.38969584,10.0354475 6.52975702,9.78770363 C6.62311078,9.62274667 6.80145372,9.4577897 6.8829322,9.30430693 C7.71160714,7.77136074 9.04545477,6.22657023 9.04545477,4.70525246 L9.04545477,4.08027901 C9.04545477,3.91535289 8.84314758,3.33750999 8.83176074,3.30194616 Z M4.49795414,6.14403006 C3.91466101,6.14403006 3.27620429,5.84934067 2.96106665,5.03550568 C2.91411502,4.90595832 2.91790045,4.64633926 2.91790045,4.62255806 L2.91790045,4.25698777 C2.91790045,3.21949852 3.78977211,2.74769939 4.54826382,2.74769939 C5.4820457,2.74769939 6.20423995,3.50252865 6.20423995,4.44600353 C6.20423995,5.38944756 5.43173602,6.14403006 4.49795414,6.14403006 Z" id="Facebook_Places"></path>
                    </g>
                </g>
            </g>
        </g>
    </g>
</svg>