<?xml version="1.0" encoding="UTF-8"?>
<svg width="54px" height="27px" viewBox="0 0 54 27" version="1.1" xmlns="http://www.w3.org/2000/svg" xmlns:xlink="http://www.w3.org/1999/xlink">
    <!-- Generator: Sketch 55.2 (78181) - https://sketchapp.com -->
    <title>Group 4</title>
    <desc>Created with Sketch.</desc>
    <g id="Page-1" stroke="none" stroke-width="1" fill="none" fill-rule="evenodd">
        <g id="Mobile-Copy-9" transform="translate(-249.000000, -402.000000)">
            <g id="Group-4" transform="translate(249.000000, 399.000000)">
                <g id="flaticon1571048215-svg" transform="translate(18.000000, 14.000000)" fill="#FFFFFF" fill-rule="nonzero">
                    <path d="M17.2906667,4.50819048 C17.2906667,7.14895238 17.2906667,9.776 17.2906667,12.4312381 C18.2361905,12.4312381 19.1641905,12.4312381 20.103619,12.4312381 C20.103619,9.78514286 20.103619,7.14971429 20.103619,4.50819048 C19.160381,4.50819048 18.2346667,4.50819048 17.2906667,4.50819048 Z" id="Path"></path>
                    <path d="M16.3649524,4.42742857 C15.4773333,4.1912381 14.9508571,4.40228571 14.4289524,5.23047619 C14.3253333,5.04457143 14.215619,4.86933333 14.1287619,4.68342857 C14.0617143,4.53866667 13.9687619,4.48914286 13.8095238,4.49142857 C13.1977143,4.50133333 12.5866667,4.4952381 11.975619,4.4967619 C11.911619,4.4967619 11.8468571,4.50895238 11.7889524,4.51657143 C11.7889524,7.168 11.7889524,9.79809524 11.7889524,12.4251429 C12.736,12.4251429 13.6609524,12.4251429 14.6133333,12.4251429 C14.6133333,12.3177143 14.6133333,12.2255238 14.6133333,12.1325714 C14.6133333,10.5904762 14.6133333,9.05142857 14.6133333,7.51085714 C14.6133333,6.93028571 14.6933333,6.83733333 15.2822857,6.76038095 C15.4270476,6.74209524 15.575619,6.73219048 15.719619,6.74438095 C16.0015238,6.77104762 16.2811429,6.81295238 16.5973333,6.85257143 C16.5973333,6.13257143 16.5904762,5.42780952 16.6019048,4.72304762 C16.6041905,4.53714286 16.5318095,4.47161905 16.3649524,4.42742857 Z" id="Path"></path>
                    <path d="M4.59657143,8.03352381 C4.32152381,7.83390476 4.0007619,7.69447619 3.69828571,7.53447619 C3.46361905,7.4087619 3.20304762,7.32038095 2.99580952,7.16038095 C2.88304762,7.07504762 2.79314286,6.8632381 2.81447619,6.72685714 C2.83352381,6.61180952 3.01257143,6.47238095 3.14590476,6.43733333 C3.32952381,6.38780952 3.54057143,6.40152381 3.73333333,6.42971429 C4.208,6.50133333 4.67809524,6.59580952 5.168,6.68571429 C5.168,6.10895238 5.16038095,5.52457143 5.17257143,4.94019048 C5.17638095,4.77104762 5.11619048,4.70019048 4.96228571,4.65066667 C4.00228571,4.34209524 3.024,4.25447619 2.03504762,4.45638095 C1.10628571,4.64533333 0.39847619,5.12152381 0.127238095,6.08914286 C0.0693333333,6.29257143 0.0419047619,6.50590476 0,6.71314286 C0,6.86857143 0,7.0232381 0,7.17790476 C0.016,7.23580952 0.0396190476,7.29219048 0.0472380952,7.35009524 C0.128,7.97333333 0.424380952,8.47390476 0.932571429,8.83352381 C1.19085714,9.01409524 1.48342857,9.14819048 1.76228571,9.29828571 C2.00304762,9.42933333 2.256,9.54285714 2.48761905,9.68685714 C2.66285714,9.79657143 2.7512381,9.9992381 2.656,10.1805714 C2.58819048,10.3100952 2.42057143,10.448 2.28038095,10.4678095 C2.01371429,10.5066667 1.73028571,10.4944762 1.46133333,10.4518095 C1.02628571,10.3855238 0.597333333,10.2758095 0.14247619,10.1820952 C0.14247619,10.8342857 0.136380952,11.4628571 0.150857143,12.088381 C0.152380952,12.1508571 0.263619048,12.247619 0.340571429,12.2674286 C1.2327619,12.5188571 2.13638095,12.6422857 3.06819048,12.5569524 C4.50361905,12.4266667 5.30361905,11.68 5.45295238,10.2552381 C5.54514286,9.37828571 5.35238095,8.58361905 4.59657143,8.03352381 Z" id="Path"></path>
                    <path d="M9.67314286,9.97714286 C9.6632381,9.89333333 9.664,9.80342857 9.664,9.71885714 C9.6632381,8.66895238 9.6632381,7.61828571 9.664,6.56838095 C9.664,6.48685714 9.67314286,6.40457143 9.67847619,6.30247619 C10.0632381,6.30247619 10.4220952,6.30247619 10.7900952,6.30247619 C10.9150476,5.696 11.0361905,5.10857143 11.1641905,4.48914286 C10.6521905,4.48914286 10.1660952,4.48914286 9.65561905,4.48914286 C9.65561905,3.68152381 9.65561905,2.90438095 9.65561905,2.10514286 C8.88457143,2.29028571 8.144,2.47695238 7.39885714,2.64457143 C7.21371429,2.68495238 7.15580952,2.77866667 7.12457143,2.95161905 C7.03238095,3.46514286 6.92190476,3.97561905 6.81447619,4.50590476 C6.45942857,4.50590476 6.128,4.50590476 5.79657143,4.50590476 C5.79657143,5.1192381 5.79657143,5.70742857 5.79657143,6.31390476 C6.14247619,6.31390476 6.46704762,6.31390476 6.81904762,6.31390476 C6.81904762,6.42742857 6.81904762,6.51809524 6.81904762,6.61028571 C6.81980952,7.89409524 6.81066667,9.17485714 6.82361905,10.4586667 C6.83504762,11.5489524 7.32038095,12.2742857 8.19961905,12.4853333 C9.19542857,12.7299048 10.1737143,12.5188571 11.1504762,12.3398095 C11.1504762,11.6540952 11.1504762,11.0011429 11.1504762,10.3238095 C10.8144762,10.3619048 10.5081905,10.408381 10.199619,10.4266667 C9.84533333,10.4472381 9.71504762,10.327619 9.67314286,9.97714286 Z" id="Path"></path>
                    <path d="M18.8761905,0.678095238 C18.8693333,0.67352381 18.8632381,0.671238095 18.855619,0.667428571 C18.7527619,0.667428571 18.6491429,0.667428571 18.5462857,0.667428571 C18.5295238,0.671238095 18.512,0.676571429 18.4952381,0.683428571 C17.808,0.787047619 17.2815238,1.38133333 17.2815238,2.09752381 C17.2815238,2.50057143 17.448381,2.8647619 17.7165714,3.12533333 C17.8895238,3.296 18.1104762,3.4232381 18.3641905,3.4872381 C18.4784762,3.51619048 18.5958095,3.53066667 18.7093333,3.52914286 C18.7108571,3.52914286 18.712381,3.52914286 18.7139048,3.52914286 C19.504,3.52914286 20.144,2.88838095 20.144,2.09828571 C20.144,1.36304762 19.5908571,0.758095238 18.8761905,0.678095238 Z" id="Path"></path>
                    <path d="M32.5767619,10.3961905 C32.0579048,10.3169524 31.8255238,9.968 31.9001905,9.4072381 C33.1550476,9.4072381 34.4190476,9.4072381 35.7660952,9.4072381 C35.7059048,8.54857143 35.6845714,7.73104762 35.576381,6.92419048 C35.4811429,6.21714286 35.2030476,5.56342857 34.6613333,5.06057143 C34.0007619,4.44571429 33.1832381,4.3207619 32.3299048,4.35809524 C30.6674286,4.4327619 29.6731429,5.17333333 29.2662857,6.65980952 C28.9348571,7.86819048 28.936381,9.09638095 29.2586667,10.3100952 C29.5657143,11.4712381 30.3062857,12.216381 31.511619,12.4571429 C32.5851429,12.672 33.6487619,12.6255238 34.7055238,12.3580952 C35.3142857,12.2049524 35.3142857,12.2064762 35.3142857,11.5801905 C35.3142857,11.1024762 35.3142857,10.6232381 35.3142857,10.1234286 C35.0506667,10.1706667 34.824381,10.2125714 34.5980952,10.2514286 C33.928381,10.3626667 33.2571429,10.5028571 32.5767619,10.3961905 Z M31.9672381,6.5592381 C31.9824762,6.43961905 32.0502857,6.31161905 32.1325714,6.21790476 C32.3900952,5.91695238 32.8617143,5.99847619 32.9417143,6.3832381 C33.04,6.85561905 33.0544762,7.34552381 33.1100952,7.85066667 C32.6491429,7.84990476 32.272,7.84990476 31.8438095,7.84990476 C31.8841905,7.4072381 31.9139048,6.98133333 31.9672381,6.5592381 Z" id="Shape"></path>
                    <path d="M28.2278095,7.25180952 C28.1767619,6.64609524 28.0624762,6.05638095 27.7942857,5.50704762 C27.5512381,5.00495238 27.1900952,4.62247619 26.6392381,4.47085714 C25.7942857,4.23771429 24.9874286,4.3207619 24.2506667,4.83580952 C24.1820952,4.88380952 24.1135238,4.92952381 24.0114286,5.00190476 C23.8026667,4.44952381 23.3561905,4.46019048 22.8952381,4.4967619 C22.8266667,4.50285714 22.7580952,4.49752381 22.6887619,4.49752381 C22.2438095,4.49752381 21.7988571,4.49752381 21.3257143,4.49752381 C21.3257143,4.61866667 21.3257143,4.71161905 21.3257143,4.80380952 C21.3257143,8.21257143 21.3257143,11.6213333 21.3257143,15.0300952 C21.3257143,15.1161905 21.3318095,15.2045714 21.3371429,15.2891429 C22.2841905,15.2891429 23.2304762,15.2891429 24.1782857,15.2891429 C24.1782857,14.3459048 24.1782857,13.400381 24.1782857,12.4754286 C24.6011429,12.5165714 25.0011429,12.5889524 25.4011429,12.5866667 C26.7733333,12.5737143 27.5961905,11.9428571 28.0053333,10.6308571 C28.0220952,10.5737143 28.039619,10.5165714 28.0533333,10.456381 C28.3260952,9.39961905 28.3222857,8.32761905 28.2278095,7.25180952 Z M25.3020952,9.92914286 C25.1725714,10.5561905 24.8007619,10.7314286 24.1714286,10.5005714 C24.1714286,10.328381 24.1714286,10.1508571 24.1714286,9.97180952 C24.1714286,8.94857143 24.1775238,7.92533333 24.1668571,6.90361905 C24.1653333,6.72457143 24.2278095,6.63390476 24.3855238,6.58361905 C24.4746667,6.55466667 24.5607619,6.51657143 24.6521905,6.48990476 C25.0415238,6.37714286 25.2944762,6.50514286 25.3455238,6.90361905 C25.4811429,7.91085714 25.5100952,8.92571429 25.3020952,9.92914286 Z" id="Shape"></path>
                </g>
                <text id="Processed-by" font-family="NotoSans-Regular, Noto Sans" font-size="9" font-weight="normal" letter-spacing="-0.123" fill="#7E7E7E">
                    <tspan x="0" y="10">Processed by</tspan>
                </text>
            </g>
        </g>
    </g>
</svg>