<?xml version="1.0" encoding="UTF-8"?>
<svg width="17px" height="17px" viewBox="0 0 17 17" version="1.1" xmlns="http://www.w3.org/2000/svg" xmlns:xlink="http://www.w3.org/1999/xlink">
    <!-- Generator: Sketch 55.2 (78181) - https://sketchapp.com -->
    <title>flaticon1561373046-svg</title>
    <desc>Created with Sketch.</desc>
    <g id="Search" stroke="none" stroke-width="1" fill="none" fill-rule="evenodd">
        <g id="Desktop-Copy" transform="translate(-350.000000, -25.000000)" fill="#9E9E9E" fill-rule="nonzero">
            <g id="Group" transform="translate(342.000000, 14.000000)">
                <g id="flaticon1561373046-svg" transform="translate(8.000000, 11.000000)">
                    <path d="M16.4470526,15.4750702 L12.4034386,11.2695088 C13.4431228,10.0335789 14.0127719,8.47852632 14.0127719,6.85964912 C14.0127719,3.07729825 10.9354737,0 7.15312281,0 C3.37077193,0 0.293473684,3.07729825 0.293473684,6.85964912 C0.293473684,10.642 3.37077193,13.7192982 7.15312281,13.7192982 C8.57307018,13.7192982 9.92621053,13.2910175 11.0831053,12.478 L15.1574386,16.7154737 C15.3277368,16.8923333 15.5567895,16.9898596 15.8022456,16.9898596 C16.0345789,16.9898596 16.2549825,16.9012807 16.4222982,16.7402281 C16.777807,16.3981404 16.7891404,15.8308772 16.4470526,15.4750702 Z M7.15312281,1.78947368 C9.94887719,1.78947368 12.2232982,4.06389474 12.2232982,6.85964912 C12.2232982,9.65540351 9.94887719,11.9298246 7.15312281,11.9298246 C4.35736842,11.9298246 2.08294737,9.65540351 2.08294737,6.85964912 C2.08294737,4.06389474 4.35736842,1.78947368 7.15312281,1.78947368 Z" id="Shape"></path>
                </g>
            </g>
        </g>
    </g>
</svg>