<?xml version="1.0" encoding="UTF-8"?>
<svg width="20px" height="17px" viewBox="0 0 20 17" version="1.1" xmlns="http://www.w3.org/2000/svg" xmlns:xlink="http://www.w3.org/1999/xlink">
    <!-- Generator: Sketch 55.2 (78181) - https://sketchapp.com -->
    <title>Shape</title>
    <desc>Created with Sketch.</desc>
    <g id="Page-1" stroke="none" stroke-width="1" fill="none" fill-rule="evenodd">
        <g id="Mobile-Copy-2" transform="translate(-214.000000, -512.000000)" fill="#818181" fill-rule="nonzero">
            <g id="flaticon1575032194-svg" transform="translate(214.000000, 512.000000)">
                <path d="M18.6606988,3.52506676 C17.7678964,2.43682858 16.5550941,1.57715453 15.022409,0.946277213 C13.4897239,0.315399894 11.815529,0 10.0000195,0 C8.18454923,0 6.51039335,0.315399894 4.97766919,0.946277213 C3.44494503,1.57715453 2.23218177,2.43667352 1.33930125,3.52506676 C0.446381627,4.61338247 0,5.79942718 0,7.08331718 C0,8.19004672 0.33657464,9.2270363 1.00999756,10.1935881 C1.68342047,11.1601787 2.6040557,11.971938 3.77233325,12.6285947 C3.69039824,12.9236425 3.59368678,13.2039591 3.48204251,13.4698161 C3.37043733,13.7354018 3.27001222,13.9531114 3.18072807,14.1229064 C3.09136575,14.2924687 2.97057415,14.4807162 2.81792328,14.687145 C2.66550696,14.8938451 2.55018813,15.0396439 2.47204495,15.1245414 C2.39397997,15.2094388 2.26564378,15.3494227 2.08695822,15.5450746 C1.90850721,15.7404938 1.79311019,15.867995 1.74107989,15.9270356 C1.7335353,15.9307959 1.70382604,15.9637857 1.65175666,16.0268192 C1.59972636,16.0894262 1.57361349,16.1205941 1.57361349,16.1205941 L1.50665038,16.2202226 C1.46939653,16.2752703 1.45266553,16.310431 1.45634009,16.325007 C1.46009284,16.3398931 1.45266553,16.3767596 1.43405815,16.4356451 C1.41541168,16.4948019 1.41732714,16.5391114 1.43960909,16.5685736 L1.43960909,16.5796994 C1.46939653,16.7050685 1.52885414,16.8065966 1.61813828,16.884051 C1.70742243,16.9612728 1.808043,17 1.91953091,17 L1.97539213,17 C2.45914488,16.9408431 2.88320547,16.8599386 3.24773027,16.7565885 C5.19720498,16.2622837 6.90857562,15.3694647 8.3817249,14.0780929 C8.9397117,14.1371335 9.47916931,14.1665956 9.99994136,14.1665956 C11.8154117,14.1665956 13.4896457,13.8512345 15.0223308,13.2201633 C16.5550159,12.5892085 17.7678182,11.7298445 18.6606206,10.6415676 C19.5535793,9.55332943 20,8.36716842 20,7.08327841 C20,5.79958224 19.5536575,4.61338247 18.6606988,3.52506676 Z M17.4050916,9.90571205 C16.6273345,10.7762406 15.5782458,11.4680968 14.257591,11.9808154 C12.9369362,12.4934178 11.5175763,12.7500097 9.99974591,12.7500097 C9.54593697,12.7500097 9.06234058,12.7205476 8.54895676,12.6613907 L7.91278769,12.5951784 L7.43286587,13.0158667 C6.51782067,13.8128174 5.4946494,14.4435784 4.36370388,14.9084599 C4.70590765,14.3109213 4.96633276,13.6762837 5.14497923,13.0049734 L5.44629367,11.9423208 L4.47534816,11.3891305 C3.5080772,10.8428017 2.75854386,10.1954101 2.22643538,9.44641289 C1.69440508,8.69764827 1.42850721,7.90980756 1.42850721,7.08347224 C1.42850721,6.07257217 1.81726851,5.13187725 2.59475202,4.26119367 C3.37247007,3.39058762 4.42144149,2.69880897 5.74217444,2.18601278 C7.0629074,1.67317783 8.48203274,1.41654714 9.99998045,1.41654714 C11.5178109,1.41654714 12.9368971,1.67306153 14.2575519,2.18585772 C15.5781676,2.69869267 16.6272563,3.39043256 17.4050525,4.26103861 C18.1825751,5.13172219 18.5712973,6.07245587 18.5712973,7.08327841 C18.5712973,8.09410096 18.1825751,9.03502847 17.4050916,9.90571205 Z" id="Shape"></path>
            </g>
        </g>
    </g>
</svg>