<?xml version="1.0" encoding="UTF-8"?>
<svg width="51px" height="51px" viewBox="0 0 51 51" version="1.1" xmlns="http://www.w3.org/2000/svg" xmlns:xlink="http://www.w3.org/1999/xlink">
    <!-- Generator: Sketch 55.2 (78181) - https://sketchapp.com -->
    <title>flaticon1562156631-svg</title>
    <desc>Created with Sketch.</desc>
    <g id="Tickets" stroke="none" stroke-width="1" fill="none" fill-rule="evenodd">
        <g id="Desktop-Copy" transform="translate(-191.000000, -302.000000)" fill="#7D7D7D" fill-rule="nonzero">
            <g id="flaticon1562156631-svg" transform="translate(191.000000, 302.000000)">
                <path d="M45.1674277,13.3738508 L44.6112328,13.9300457 C43.5696458,14.9716326 42.8120565,15.2729376 41.2339421,15.2729376 C38.0430987,15.2729376 35.7270624,12.9569013 35.7270624,9.76605788 C35.7270624,8.18794348 36.0283674,7.43035417 37.0699543,6.3887672 L37.6261492,5.83257235 L31.7935768,0 L0,31.7935768 L5.83257235,37.6261492 L6.3887672,37.0699543 C7.43035417,36.0283674 8.18794348,35.7270624 9.76605788,35.7270624 C12.9569013,35.7270624 15.2729376,38.0430987 15.2729376,41.2339421 C15.2729376,42.8120565 14.9716326,43.5696458 13.9300457,44.6112328 L13.3738508,45.1674277 L19.2064232,51 L51,19.2064232 L45.1674277,13.3738508 Z M15.5766027,45.1446134 C16.5143457,44.0267169 16.8463318,42.9497285 16.8463318,41.2339421 C16.8463318,37.1973993 13.8026007,34.1536682 9.76605788,34.1536682 C8.05027149,34.1536682 6.97328315,34.4856543 5.85459986,35.4233973 L2.22477942,31.7935768 L20.7798174,13.2385389 L23.3704109,15.8291325 L24.4828006,14.7167428 L21.8922071,12.1261492 L31.7935768,2.22477942 L35.4233973,5.85538656 C34.4856543,6.97328315 34.1536682,8.05027149 34.1536682,9.76605788 C34.1536682,13.8026007 37.1973993,16.8463318 41.2339421,16.8463318 C42.9497285,16.8463318 44.0267169,16.5143457 45.1454001,15.5766027 L48.7752206,19.2064232 L38.8738508,29.1077929 L36.2832572,26.5171994 L35.1708675,27.6295891 L37.7614611,30.2201826 L19.2064232,48.7752206 L15.5766027,45.1446134 Z" id="Shape"></path>
                <polygon id="Path" points="27.9553011 20 25 17.0446989 26.0446989 16 29 18.9553011"></polygon>
                <polygon id="Path" points="32.9553011 26 30 23.0446989 31.0446989 22 34 24.9553011"></polygon>
            </g>
        </g>
    </g>
</svg>