<?xml version="1.0" encoding="UTF-8"?>
<svg width="13px" height="13px" viewBox="0 0 13 13" version="1.1" xmlns="http://www.w3.org/2000/svg" xmlns:xlink="http://www.w3.org/1999/xlink">
    <!-- Generator: Sketch 55.2 (78181) - https://sketchapp.com -->
    <title>Artboard</title>
    <desc>Created with Sketch.</desc>
    <g id="Artboard" stroke="none" stroke-width="1" fill="none" fill-rule="evenodd">
        <g id="flaticon1564747555-svg" fill="#FFFFFF" fill-rule="nonzero">
            <path d="M13.1671429,9.09767857 C13.1671429,8.69467857 12.8583929,8.36875 12.4748929,8.36875 C12.0946429,8.36967857 11.7821786,8.69467857 11.7821786,9.09767857 L11.7821786,10.6066071 L8.98810714,7.81114286 C8.71789286,7.54046429 8.28053571,7.54046429 8.01032143,7.81114286 C7.74010714,8.08135714 7.74010714,8.52010714 8.01032143,8.79032143 L10.7909286,11.57 L9.28896429,11.57 C8.87992857,11.5709286 8.55028571,11.8806071 8.55028571,12.26225 C8.55028571,12.6448214 8.87992857,12.9540357 9.28896429,12.9540357 L12.428,12.9540357 C12.8370357,12.9540357 13.1662143,12.6452857 13.1676071,12.26225 C13.1662143,12.2520357 13.1648214,12.2441429 13.1634286,12.2339286 C13.1648214,12.2209286 13.1676071,12.207 13.1676071,12.1935357 L13.1676071,9.09767857 L13.1671429,9.09767857 L13.1671429,9.09767857 Z" id="Path"></path>
            <path d="M4.17857143,7.81114286 L1.38589286,10.6066071 L1.38589286,9.09767857 C1.38589286,8.69467857 1.07389286,8.36967857 0.692714286,8.36875 C0.310142857,8.36875 0.000928571429,8.69467857 0.000928571429,9.09767857 L-1.28785871e-14,12.194 C-1.28785871e-14,12.2074643 0.00371428571,12.2213929 0.00464285714,12.2343929 C0.00371428571,12.2441429 0.00185714286,12.2520357 0.000928571429,12.2627143 C0.00185714286,12.64575 0.3315,12.9545 0.740071429,12.9545 L3.87957143,12.9545 C4.28767857,12.9545 4.61778571,12.6452857 4.61778571,12.2627143 C4.61778571,11.8810714 4.28767857,11.5713929 3.87957143,11.5704643 L2.37760714,11.5704643 L5.15821429,8.79078571 C5.4275,8.52057143 5.4275,8.08182143 5.15821429,7.81160714 C4.88753571,7.54046429 4.44971429,7.54046429 4.17857143,7.81114286 Z" id="Path"></path>
            <path d="M8.98810714,5.35553571 L11.7821786,2.56192857 L11.7821786,4.07085714 C11.7821786,4.47246429 12.0946429,4.79746429 12.4748929,4.79885714 C12.8583929,4.79885714 13.1671429,4.47246429 13.1671429,4.07085714 L13.1671429,0.973607143 C13.1671429,0.960142857 13.1643571,0.946214286 13.1629643,0.934142857 C13.1643571,0.924392857 13.16575,0.915107143 13.1671429,0.905357143 C13.16575,0.521857143 12.8365714,0.213107143 12.428,0.213107143 L9.28896429,0.213107143 C8.87992857,0.213107143 8.55028571,0.521857143 8.55028571,0.905357143 C8.55028571,1.28653571 8.87992857,1.59714286 9.28896429,1.59807143 L10.7909286,1.59807143 L8.01032143,4.37775 C7.74010714,4.6475 7.74010714,5.08532143 8.01032143,5.35507143 C8.28053571,5.62714286 8.71789286,5.62714286 8.98810714,5.35553571 Z" id="Path"></path>
            <path d="M2.37760714,1.59807143 L3.87910714,1.59807143 C4.28721429,1.59714286 4.61732143,1.28653571 4.61732143,0.905357143 C4.61732143,0.521857143 4.28721429,0.213107143 3.87910714,0.213107143 L0.740071429,0.213107143 C0.3315,0.213107143 0.00185714286,0.521857143 0.000928571429,0.905357143 C0.00185714286,0.915107143 0.00371428571,0.924392857 0.00464285714,0.934142857 C0.00371428571,0.946214286 0,0.959678571 0,0.973607143 L0.000928571429,4.07132143 C0.000928571429,4.47292857 0.310142857,4.79932143 0.692714286,4.79932143 C1.07389286,4.79792857 1.38589286,4.47292857 1.38589286,4.07132143 L1.38589286,2.56239286 L4.17857143,5.35553571 C4.44971429,5.62714286 4.88753571,5.62714286 5.15821429,5.35553571 C5.4275,5.08578571 5.4275,4.64796429 5.15821429,4.37821429 L2.37760714,1.59807143 Z" id="Path"></path>
        </g>
    </g>
</svg>