<?xml version="1.0" encoding="UTF-8"?>
<svg width="14px" height="13px" viewBox="0 0 14 13" version="1.1" xmlns="http://www.w3.org/2000/svg" xmlns:xlink="http://www.w3.org/1999/xlink">
    <!-- Generator: Sketch 55.2 (78181) - https://sketchapp.com -->
    <title>Combined Shape</title>
    <desc>Created with Sketch.</desc>
    <g id="Event" stroke="none" stroke-width="1" fill="none" fill-rule="evenodd">
        <g id="Mobile" transform="translate(-267.000000, -842.000000)" fill="#989898" fill-rule="nonzero">
            <g id="Group-6" transform="translate(21.000000, 838.000000)">
                <g id="flaticon1563953735-svg" transform="translate(246.000000, 4.000000)">
                    <path d="M13.6575692,4.26921811 C13.9090154,4.51834716 13.9090154,4.92219953 13.6575692,5.17132857 L9.53729124,9.25373817 C9.41156811,9.37820063 9.24680438,9.44055944 9.08204065,9.44055944 C8.91727691,9.44055944 8.75246168,9.37820063 8.62679006,9.25373817 C8.37534381,9.00460913 8.37534381,8.60075676 8.62679006,8.35162771 L11.6480079,5.35814984 L0.643809521,5.35814984 C0.288272151,5.35814984 -1.42108547e-14,5.07248323 -1.42108547e-14,4.72027334 C-1.42108547e-14,4.36801242 0.288272151,4.08239684 0.643809521,4.08239684 L11.6480079,4.08239684 L8.62668705,1.08891897 C8.3752408,0.839789927 8.3752408,0.435937558 8.62668705,0.186808512 C8.87808179,-0.0622695039 9.28579348,-0.0622695039 9.53718823,0.186808512 L13.6575692,4.26921811 Z M0.5,12 L13.5,12 C13.7761424,12 14,12.2238576 14,12.5 C14,12.7761424 13.7761424,13 13.5,13 L0.5,13 C0.223857625,13 3.38176876e-17,12.7761424 0,12.5 C-3.38176876e-17,12.2238576 0.223857625,12 0.5,12 Z" id="Combined-Shape"></path>
                </g>
            </g>
        </g>
    </g>
</svg>