<?xml version="1.0" encoding="UTF-8"?>
<svg width="32px" height="32px" viewBox="0 0 32 32" version="1.1" xmlns="http://www.w3.org/2000/svg" xmlns:xlink="http://www.w3.org/1999/xlink">
    <!-- Generator: Sketch 55.2 (78181) - https://sketchapp.com -->
    <title>flaticon1562764801-svg</title>
    <desc>Created with Sketch.</desc>
    <g id="Event" stroke="none" stroke-width="1" fill="none" fill-rule="evenodd">
        <g id="Desktop" transform="translate(-229.000000, -630.000000)" fill="#FFFFFF" fill-rule="nonzero">
            <g id="flaticon1562764801-svg" transform="translate(229.000000, 630.000000)">
                <path d="M14.4696902,16.0049092 L0.305136919,30.2684195 C-0.0883784523,30.6646841 -0.0883784523,31.3066629 0.305136919,31.7029275 C0.501644595,31.9013115 0.759654674,32 1.01716473,32 C1.27517481,32 1.53268487,31.9013115 1.72919255,31.7029275 L16.00025,17.332169 L30.2713075,31.7029275 C30.4683152,31.9013115 30.7258252,32 30.9833353,32 C31.2408453,32 31.4988554,31.9013115 31.6953631,31.7029275 C32.0888785,31.3066629 32.0888785,30.6646841 31.6953631,30.2684195 L17.5313098,16.0049092 L31.7048635,1.73132872 C32.0983788,1.33506416 32.0983788,0.693085353 31.7048635,0.296820789 C31.3113481,-0.0989402629 30.6738232,-0.0989402629 30.2808078,0.296820789 L16.00075,14.6776495 L1.71919216,0.297324302 C1.32567678,-0.0984367501 0.6886519,-0.0984367501 0.295136529,0.297324302 C-0.0983788429,0.693588866 -0.0983788429,1.33556767 0.295136529,1.73183224 L14.4696902,16.0049092 Z" id="Path"></path>
            </g>
        </g>
    </g>
</svg>