<?xml version="1.0" encoding="UTF-8"?>
<svg width="39px" height="28px" viewBox="0 0 39 28" version="1.1" xmlns="http://www.w3.org/2000/svg" xmlns:xlink="http://www.w3.org/1999/xlink">
    <!-- Generator: Sketch 55.2 (78181) - https://sketchapp.com -->
    <title>flaticon1562760889-svg</title>
    <desc>Created with Sketch.</desc>
    <g id="Event" stroke="none" stroke-width="1" fill="none" fill-rule="evenodd">
        <g id="Desktop-Copy" transform="translate(-305.000000, -213.000000)">
            <g id="Group-3" transform="translate(31.000000, 208.000000)">
                <g id="flaticon1562760889-svg" transform="translate(274.000000, 5.000000)">
                    <rect id="Rectangle" fill="#000000" x="11" y="6" width="19" height="17"></rect>
                    <path d="M37.4798806,2.40360093 C36.0721065,0.696387155 33.4729452,0 28.5091258,0 L10.4904968,0 C5.41307419,0 2.76988065,0.741307078 1.36739032,2.55889552 C0,4.33105067 0,6.94218164 0,10.5560536 L0,17.4440747 C0,24.445294 1.6224,28 10.4904968,28 L28.5092516,28 C32.8138452,28 35.1991355,27.3854954 36.7422774,25.8788812 C38.3247968,24.3338925 39,21.811318 39,17.4440747 L39,10.5560536 C39,6.74491901 38.8941968,4.11838692 37.4798806,2.40360093 Z M25.0381258,14.9510189 L16.8559258,19.3135136 C16.6730032,19.411054 16.472971,19.4594391 16.2731903,19.4594391 C16.0469903,19.4594391 15.8212935,19.3973213 15.6213871,19.2738557 C15.2449742,19.0411705 15.0151258,18.6249553 15.0151258,18.1760128 L15.0151258,9.47900223 C15.0151258,9.03082974 15.2443452,8.61499959 15.6200032,8.38218604 C15.9957871,8.1493725 16.4631581,8.13345801 16.8530323,8.34008966 L25.0352323,12.6744772 C25.4515258,12.8949699 25.7129516,13.3333883 25.7135814,13.8117213 C25.7140839,14.2904394 25.4537903,14.7294996 25.0381258,14.9510189 Z" id="XMLID_823_" fill="#FFFFFF" fill-rule="nonzero"></path>
                </g>
            </g>
        </g>
    </g>
</svg>