<?xml version="1.0" encoding="UTF-8"?>
<svg width="24px" height="24px" viewBox="0 0 24 24" version="1.1" xmlns="http://www.w3.org/2000/svg" xmlns:xlink="http://www.w3.org/1999/xlink">
    <!-- Generator: Sketch 55.2 (78181) - https://sketchapp.com -->
    <title>flaticon1561736528-svg</title>
    <desc>Created with Sketch.</desc>
    <g id="Event" stroke="none" stroke-width="1" fill="none" fill-rule="evenodd">
        <g id="Desktop" transform="translate(-296.000000, -213.000000)">
            <g id="flaticon1561736528-svg" transform="translate(296.000000, 213.000000)">
                <rect id="Rectangle" fill="#000000" x="6" y="4" width="13" height="18"></rect>
                <path d="M12,0 C5.3832,0 0,5.3832 0,12 C0,18.6168 5.3832,24 12,24 C18.6168,24 24,18.6168 24,12 C24,5.3832 18.6168,0 12,0 Z M18.2252,12.3304 L9.4252,18.3304 C9.3576,18.3764 9.2788,18.4 9.2,18.4 C9.136,18.4 9.0716,18.3848 9.0132,18.3536 C8.882,18.2844 8.8,18.1484 8.8,18 L8.8,6 C8.8,5.8516 8.882,5.7156 9.0132,5.6464 C9.1444,5.5768 9.3028,5.5864 9.4256,5.6696 L18.2256,11.6696 C18.3344,11.744 18.4,11.8676 18.4,12 C18.4,12.1324 18.3344,12.256 18.2252,12.3304 Z" id="Shape" fill="#FFFFFF" fill-rule="nonzero"></path>
            </g>
        </g>
    </g>
</svg>